<?xml version="1.0" encoding="UTF-8"?>
<svg version="1.1" xmlns="http://www.w3.org/2000/svg" width="260" height="148">
<path d="M0 0 C85.8 0 171.6 0 260 0 C260 48.84 260 97.68 260 148 C174.2 148 88.4 148 0 148 C0 99.16 0 50.32 0 0 Z " fill="#E40202" transform="translate(0,0)"/>
<path d="M0 0 C27.92018783 -0.28076167 27.92018783 -0.28076167 39.82617188 -0.34179688 C47.94881513 -0.3836344 56.07090997 -0.43206492 64.19311523 -0.52807617 C70.74181915 -0.60545025 77.29015303 -0.64599699 83.83929253 -0.6641407 C86.33720669 -0.67706974 88.8350886 -0.70231765 91.33275032 -0.7401104 C94.83330352 -0.79096913 98.33141187 -0.79792158 101.83227539 -0.79467773 C103.37947517 -0.83242813 103.37947517 -0.83242813 104.95793152 -0.87094116 C110.36043753 -0.81681243 113.28011108 -0.3370798 117.19798279 3.54966736 C118.16035852 4.67614625 119.10544674 5.81894275 120 7 C118.52919066 10.10251954 117.23544764 11.89116313 114.5625 14.06640625 C109.06983907 18.71604802 104.06190289 23.82961136 99 28.9375 C98.02497614 29.9175531 97.0497172 30.8973724 96.07421875 31.87695312 C93.71383382 34.24902313 91.35583095 36.6234086 89 39 C88.4225 38.67 87.845 38.34 87.25 38 C84.80116138 36.72924102 84.80116138 36.72924102 81 37 C80.34 38.32 79.68 39.64 79 41 C79.99 41.99 80.98 42.98 82 44 C80.42267812 47.8186624 78.00662307 50.23724379 75.09765625 53.1328125 C74.61928818 53.61072235 74.1409201 54.0886322 73.64805603 54.58102417 C72.63923751 55.58683117 71.6279992 56.59021626 70.61450195 57.59130859 C69.06597779 59.12156324 67.52561899 60.65968219 65.98632812 62.19921875 C58.44351806 69.7043213 58.44351806 69.7043213 55 72 C54.66656449 74.54207971 54.66656449 74.54207971 55 77 C56.09805792 78.30360854 56.09805792 78.30360854 58.796875 78.33984375 C62.06986372 78.29669535 62.06986372 78.29669535 64.203125 76.12890625 C64.87859375 75.28199219 65.5540625 74.43507813 66.25 73.5625 C70.77531094 68.17776026 75.69387388 63.60147258 81 59 C81.79535156 58.30132812 82.59070313 57.60265625 83.41015625 56.8828125 C85.26908079 55.25010629 87.13222538 53.62256399 89 52 C92.36748512 53.51947499 93.60840337 54.52100842 95 58 C96.65 56.68 98.3 55.36 100 54 C99.71125 53.4225 99.4225 52.845 99.125 52.25 C98.08333333 50.16666667 97.04166667 48.08333333 96 46 C107.8828609 35.04796321 107.8828609 35.04796321 113.98828125 29.76171875 C117.30113243 26.8605617 120.54732033 23.88541113 123.80078125 20.91796875 C126 19 126 19 129 17 C132.19787781 17.33203297 133.89194192 18.50317898 136.171875 20.6953125 C136.74977783 21.24292236 137.32768066 21.79053223 137.9230957 22.35473633 C138.52597412 22.93892334 139.12885254 23.52311035 139.75 24.125 C141.00835387 25.3198121 142.26746271 26.5138296 143.52734375 27.70703125 C144.43009033 28.56675537 144.43009033 28.56675537 145.35107422 29.44384766 C147.87532886 31.82608027 150.48662899 34.09949206 153.11328125 36.3671875 C156.77729519 39.53811467 160.38257888 42.7761409 164 46 C163.27633685 49.34430737 162.18284504 51.34262343 160 54 C160.99 54.99 161.98 55.98 163 57 C166.16115776 55.63016497 166.9927092 55.0109362 169 52 C172.91329453 52.54645104 174.58718985 54.29935613 177.25 57.125 C181.83480368 61.86790036 186.59877854 66.29259755 191.76171875 70.40234375 C194.63147175 72.68841818 196.70741815 74.51002902 198 78 C199.99954746 78.04254356 202.00041636 78.04080783 204 78 C205.24580045 76.95688658 205.24580045 76.95688658 205.30859375 74.671875 C204.89927103 71.12786566 203.81525895 70.46686411 201.0625 68.25 C195.72853138 63.73190537 190.79770087 58.89972208 185.875 53.9375 C184.71883179 52.77492676 184.71883179 52.77492676 183.53930664 51.58886719 C181.69072121 49.72802296 179.84425622 47.86513338 178 46 C179.11179163 42.66462511 180.47411298 41.36292656 183 39 C181.68 38.34 180.36 37.68 179 37 C179 36.34 179 35.68 179 35 C178.2575 35.495 177.515 35.99 176.75 36.5 C174 38 174 38 170 38 C168.38006592 36.86108398 168.38006592 36.86108398 166.79199219 35.24609375 C165.89151154 34.34515991 165.89151154 34.34515991 164.97283936 33.42602539 C164.019487 32.44170532 164.019487 32.44170532 163.046875 31.4375 C162.38665344 30.77161865 161.72643188 30.1057373 161.04620361 29.41967773 C158.93790982 27.28897852 156.84393845 25.14479947 154.75 23 C153.32383791 21.55377846 151.89676534 20.10845416 150.46875 18.6640625 C146.96851345 15.11970314 143.48106046 11.56319074 140 8 C140.97866338 6.85373678 141.95794587 5.70800212 142.9375 4.5625 C143.48277344 3.92441406 144.02804688 3.28632812 144.58984375 2.62890625 C145.36795695 1.73008851 146.15936528 0.84063472 147 0 C148.4674896 -0.09565123 149.93956884 -0.12188309 151.41017151 -0.12025452 C152.36234558 -0.12162918 153.31451965 -0.12300385 154.29554749 -0.12442017 C155.34858566 -0.12082489 156.40162384 -0.11722961 157.48657227 -0.11352539 C159.14002151 -0.11374443 159.14002151 -0.11374443 160.82687378 -0.1139679 C164.49007092 -0.11326821 168.15321794 -0.10547324 171.81640625 -0.09765625 C174.34846468 -0.09579227 176.88052348 -0.09436827 179.4125824 -0.09336853 C185.40848249 -0.08993346 191.40436089 -0.08204269 197.40025228 -0.07201904 C206.09011025 -0.05780588 214.77997434 -0.0525474 223.469841 -0.04621124 C235.6465757 -0.03649852 247.823263 -0.01734303 260 0 C260 26.73 260 53.46 260 81 C174.2 81 88.4 81 0 81 C0 54.27 0 27.54 0 0 Z " fill="#1F9B02" transform="translate(0,67)"/>
<path d="M0 0 C2.79941709 1.15641735 4.36224511 2.76316641 6.49066162 4.9190979 C7.34545105 5.77734161 8.20024048 6.63558533 9.08093262 7.51983643 C9.99763733 8.45516205 10.91434204 9.39048767 11.85882568 10.35415649 C12.81970067 11.32317701 13.7813219 12.29145808 14.74365234 13.2590332 C17.2787923 15.81129335 19.80524985 18.3719697 22.32952881 20.93496704 C26.35276418 25.01733024 30.38848239 29.08733763 34.42517853 33.15638351 C35.82368757 34.56867216 37.21799153 35.98512094 38.61218262 37.40167236 C43.10085382 41.94084307 47.6348388 46.33310677 52.50189209 50.46643066 C55.31850806 52.91608344 57.76696616 55.70484254 60.26507568 58.47134399 C61.97255126 60.07576311 61.97255126 60.07576311 63.89871216 59.78813171 C67.11996119 58.47033597 69.21040084 56.16735698 71.59564209 53.71524048 C72.12945999 53.17864807 72.66327789 52.64205566 73.21327209 52.08920288 C74.97444743 50.31575113 76.7249773 48.53214638 78.47601318 46.74868774 C79.69781756 45.51620878 80.92043441 44.28453478 82.14382935 43.05363464 C85.36169527 39.81298099 88.57132105 36.56430273 91.77844238 33.3130188 C96.91771508 28.10356311 102.06448859 22.90161385 107.22043991 17.70866585 C109.0230334 15.88931146 110.81910608 14.06368827 112.61483765 12.23756409 C113.71364567 11.12830058 114.81270225 10.01928323 115.91204834 8.91055298 C116.41286423 8.3978334 116.91368011 7.88511383 117.42967224 7.3568573 C118.62382355 6.15858611 119.86969006 5.01224239 121.12445068 3.87759399 C121.78445068 3.87759399 122.44445068 3.87759399 123.12445068 3.87759399 C123.78445068 2.55759399 124.44445068 1.23759399 125.12445068 -0.12240601 C129.44175481 0.35169048 131.46092529 2.91156102 134.37445068 5.94009399 C135.26648193 6.85919556 136.15851318 7.77829712 137.07757568 8.72525024 C138.09077881 9.7906604 138.09077881 9.7906604 139.12445068 10.87759399 C132.13021942 19.62038307 123.54069486 26.82630772 115.10882568 34.14321899 C111.07069662 37.67260739 107.10560274 41.28425584 103.12445068 44.87759399 C101.47874825 46.35690629 99.83291534 47.83607346 98.18695068 49.31509399 C94.61205308 52.53081821 91.05271945 55.76299309 87.49945068 59.00259399 C83.08912314 63.01768593 78.62999107 66.96994179 74.12445068 70.87759399 C79.79019118 77.80570123 86.15478708 84.01963542 92.49945068 90.31509399 C93.62859023 91.43920866 94.75749846 92.56355573 95.88616943 93.68814087 C98.62960256 96.42064634 101.37615053 99.14998408 104.12445068 101.87759399 C104.74320068 101.56564087 105.36195068 101.25368774 105.99945068 100.93228149 C109.85326424 99.01954315 109.85326424 99.01954315 112.12445068 98.87759399 C114.37445068 100.81509399 114.37445068 100.81509399 116.12445068 102.87759399 C114.37445068 106.75259399 114.37445068 106.75259399 112.12445068 107.87759399 C113.67514406 111.5825025 115.94146797 113.93886678 118.77288818 116.75650024 C120.15734131 118.13805298 120.15734131 118.13805298 121.56976318 119.54751587 C122.05090576 120.02245483 122.53204834 120.4973938 123.027771 120.98672485 C124.4928626 122.43358788 125.94982079 123.88826505 127.40570068 125.34439087 C132.1679379 130.20527125 132.1679379 130.20527125 137.40814209 134.5140686 C139.12445068 135.87759399 139.12445068 135.87759399 139.49945068 138.44009399 C139.12445068 140.87759399 139.12445068 140.87759399 137.12445068 142.87759399 C133.99945068 143.00259399 133.99945068 143.00259399 131.12445068 142.87759399 C130.87695068 142.09384399 130.62945068 141.31009399 130.37445068 140.50259399 C128.88519602 137.3751592 128.11107116 137.3546726 125.12445068 135.87759399 C123.8303435 134.69495403 122.58248585 133.46052767 121.37445068 132.19009399 C118.01809 128.7398053 114.53157032 125.54798225 110.87835693 122.41665649 C109.12445068 120.87759399 109.12445068 120.87759399 106.81195068 118.50259399 C105.11522327 116.63548428 105.11522327 116.63548428 102.12445068 115.87759399 C101.87695068 116.49634399 101.62945068 117.11509399 101.37445068 117.75259399 C99.91816429 120.22828086 98.74632562 120.82884402 96.12445068 121.87759399 C94.80445068 120.22759399 93.48445068 118.57759399 92.12445068 116.87759399 C92.80507568 116.30009399 93.48570068 115.72259399 94.18695068 115.12759399 C96.33267753 113.14289779 96.33267753 113.14289779 96.08538818 111.06118774 C94.680978 107.86986541 92.26784926 105.93194266 89.68695068 103.69009399 C88.8782251 102.96934692 88.8782251 102.96934692 88.05316162 102.23403931 C86.94666618 101.24867874 85.83711572 100.26673812 84.72454834 99.28823853 C82.42075872 97.25721985 80.14967163 95.19050816 77.87445068 93.12759399 C77.07136475 92.41345337 76.26827881 91.69931274 75.44085693 90.96353149 C73.90324504 89.57890291 72.38954407 88.16722732 70.90179443 86.72915649 C69.86732178 85.75075806 69.86732178 85.75075806 68.81195068 84.75259399 C68.21769287 84.17251587 67.62343506 83.59243774 67.01116943 82.99478149 C65.13197839 81.65207471 65.13197839 81.65207471 62.63226318 81.97134399 C59.70786282 83.02813665 58.40463141 84.2204706 56.31195068 86.50259399 C53.10415267 89.87827677 49.80220778 92.98021388 46.27288818 96.01431274 C42.93783431 98.90671401 39.68490206 101.88941217 36.42132568 104.86196899 C34.3863211 106.64778935 32.31544319 108.28962695 30.12445068 109.87759399 C30.41320068 110.45509399 30.70195068 111.03259399 30.99945068 111.62759399 C32.04111735 113.71092733 33.08278402 115.79426066 34.12445068 117.87759399 C32.83479892 119.25322254 31.49755776 120.58525792 30.12445068 121.87759399 C29.46445068 121.87759399 28.80445068 121.87759399 28.12445068 121.87759399 C26.74212625 120.25132996 25.40507553 118.58509379 24.12445068 116.87759399 C19.36102609 119.07209746 15.97243903 122.36446876 12.12445068 125.87759399 C11.56773682 126.38387329 11.01102295 126.89015259 10.43743896 127.41177368 C8.55760598 129.12452149 6.68385373 130.84368483 4.81195068 132.56509399 C4.20109619 133.12366089 3.5902417 133.68222778 2.96087646 134.25772095 C0.53857758 136.50047842 -1.6534942 138.572645 -3.60211182 141.24868774 C-4.02234619 141.78622681 -4.44258057 142.32376587 -4.87554932 142.87759399 C-7.93804932 143.25259399 -7.93804932 143.25259399 -10.87554932 142.87759399 C-12.87554932 140.87759399 -12.87554932 140.87759399 -13.31695557 138.55728149 C-12.67759222 134.67583678 -10.78977873 133.52045998 -7.81304932 131.00259399 C-6.72007046 130.05437277 -5.63039657 129.10233275 -4.54351807 128.14712524 C-3.95618896 127.63230591 -3.36885986 127.11748657 -2.76373291 126.58706665 C0.73987387 123.41506579 4.04869909 120.04647385 7.37445068 116.69009399 C8.3761731 115.68196655 8.3761731 115.68196655 9.39813232 114.6534729 C10.97576927 113.06366379 12.55127212 111.47181301 14.12445068 109.87759399 C13.79445068 109.30009399 13.46445068 108.72259399 13.12445068 108.12759399 C12.12445068 105.87759399 12.12445068 105.87759399 12.12445068 101.87759399 C13.62445068 100.12759399 13.62445068 100.12759399 15.12445068 98.87759399 C15.70195068 99.20759399 16.27945068 99.53759399 16.87445068 99.87759399 C19.32328931 101.14835297 19.32328931 101.14835297 23.12445068 100.87759399 C25.2844546 99.04236035 27.1865786 97.23244979 29.13226318 95.19009399 C29.69895721 94.61299683 30.26565125 94.03589966 30.84951782 93.4413147 C32.65922934 91.59595966 34.45502353 89.73780561 36.24945068 87.87759399 C38.05270205 86.01917532 39.85875778 84.16371575 41.67080688 82.31387329 C42.79820407 81.16189012 43.92021262 80.0046047 45.03634644 78.84170532 C46.36138079 77.48256627 47.73854621 76.17460741 49.12445068 74.87759399 C49.78445068 74.87759399 50.44445068 74.87759399 51.12445068 74.87759399 C51.61945068 72.89759399 51.61945068 72.89759399 52.12445068 70.87759399 C40.94280379 60.30850518 29.76692602 49.74988851 18.15179443 39.65493774 C14.9232039 36.82447784 11.74531893 33.93798193 8.55804443 31.06118774 C6.44933922 29.16910714 4.32525267 27.29853642 2.18695068 25.44009399 C-2.90932446 21.00309059 -7.88716198 16.43499933 -12.87554932 11.87759399 C-2.76354724 -0.18036038 -2.76354724 -0.18036038 0 0 Z " fill="#FAFAF8" transform="translate(66.87554931640625,3.122406005859375)"/>
</svg>
